<svg width="40" height="40" viewBox="0 0 40 40" fill="none" xmlns="http://www.w3.org/2000/svg">
<path d="M15.3126 8.68249C9.06274 11.2713 6.0942 18.438 8.68299 24.6879C11.2718 30.9378 18.4385 33.9063 24.6884 31.3175C30.9383 28.7287 33.9068 21.562 31.318 15.3121C28.7292 9.06224 21.5625 6.0937 15.3126 8.68249ZM23.8931 29.3976C18.7042 31.5469 12.7522 29.0815 10.6029 23.8926C8.45362 18.7037 10.919 12.7517 16.1079 10.6024C21.2968 8.45312 27.2488 10.9185 29.3981 16.1074C31.5474 21.2963 29.082 27.2483 23.8931 29.3976Z" fill="#ED1C24"/>
<path d="M19.4043 17.1019L16.9257 20.2908L17.2945 20.8625L17.954 20.4083C18.4044 20.1311 18.6074 20.1905 18.8908 20.6323L22.269 25.837C23.1389 27.187 24.0311 27.3392 24.901 26.4693C25.5754 25.7949 26.0469 24.6998 25.9738 23.9165L25.568 23.2928C25.5383 23.7581 25.2636 24.206 25.0235 24.4461C24.6832 24.7864 24.3206 24.6713 23.9878 24.1627L19.4043 17.1019ZM16.9071 14.4315C17.2353 14.7597 17.4197 15.2048 17.4197 15.6689C17.4197 16.1331 17.2353 16.5782 16.9071 16.9064C16.579 17.2346 16.1338 17.4189 15.6697 17.4189C15.2056 17.4189 14.7605 17.2346 14.4323 16.9064C14.1041 16.5782 13.9197 16.1331 13.9197 15.6689C13.9197 15.2048 14.1041 14.7597 14.4323 14.4315C14.7605 14.1033 15.2056 13.9189 15.6697 13.9189C16.1338 13.9189 16.579 14.1033 16.9071 14.4315Z" fill="#ED1C24"/>
</svg>
