<svg width="40" height="44" viewBox="0 0 40 44" fill="none" xmlns="http://www.w3.org/2000/svg">
<path d="M22.0647 15.9348C22.3611 16.6502 22.0235 17.4697 21.3122 17.7643C20.6008 18.059 19.7827 17.7183 19.4863 17.0028C19.1902 16.288 19.5276 15.4679 20.2389 15.1733C20.9502 14.8786 21.7686 15.22 22.0647 15.9348Z" fill="#ED1C24"/>
<path d="M16.9075 18.071C17.2038 18.7865 16.8662 19.6059 16.1549 19.9005C15.4436 20.1952 14.6255 19.8545 14.3291 19.139C14.033 18.4242 14.3704 17.6041 15.0817 17.3095C15.793 17.0149 16.6114 17.3562 16.9075 18.071Z" fill="#ED1C24"/>
<path d="M20.8802 24.0163C20.1378 24.3238 19.3185 24.446 18.428 24.381C18.0431 24.3529 17.7529 24.0173 17.7796 23.6312C17.8061 23.2456 18.1388 22.9556 18.5245 22.9832C19.8624 23.0813 20.9388 22.6354 21.8155 21.6201C22.0681 21.328 22.5087 21.2977 22.8005 21.5515C23.0922 21.8056 23.1243 22.2481 22.8721 22.5401C22.2884 23.2159 21.6227 23.7087 20.8802 24.0163Z" fill="#ED1C24"/>
<path d="M22.8373 10.1645C22.1935 9.64954 21.5094 9.21953 20.7995 8.89129L21.3763 10.284C21.2345 10.3427 21.0696 10.4186 20.8945 10.5063C21.352 10.7722 21.7933 11.0902 22.2132 11.4475C23.4519 12.5054 24.5144 13.9398 25.2254 15.6563C27.176 20.3656 25.7708 25.4327 22.0966 26.9546C18.4224 28.4765 13.8457 25.8872 11.8951 21.1779C11.1814 19.4549 10.9183 17.6894 11.0526 16.0628C11.0969 15.5133 11.1867 14.9828 11.3158 14.4739C11.13 14.5358 10.9597 14.5987 10.8179 14.6574L10.241 13.2647C9.97757 13.9962 9.79146 14.7866 9.70039 15.606C9.47574 17.5432 9.75534 19.6585 10.6059 21.7119C12.8517 27.1337 18.2499 30.0658 22.6332 28.2502C27.0229 26.4319 28.7604 20.5441 26.5146 15.1223C25.664 13.069 24.3659 11.3755 22.8373 10.1645Z" fill="#ED1C24"/>
<path d="M4.66211 11.5352L8.31093 10.426L14.3936 8.57431L20.1506 5.49906L23.3619 3.78944" fill="#ED1C24"/>
<path d="M4.66211 11.5352L8.31093 10.426L14.3936 8.57431L20.1506 5.49906L23.3619 3.78944" stroke="#ED1C24" stroke-width="2.26902" stroke-miterlimit="10" stroke-linecap="round" stroke-linejoin="round"/>
<path d="M17.7507 15.0038C17.7405 15.0156 17.7394 15.0312 17.7357 15.0404C17.6948 15.1787 17.6185 15.2862 17.5159 15.3667C17.4955 15.3903 17.4724 15.4075 17.4466 15.4181C17.4133 15.4471 17.3811 15.4605 17.3424 15.4765C17.3037 15.4925 17.265 15.5085 17.2274 15.5089C17.2016 15.5196 17.1732 15.5238 17.142 15.5215C17.0502 15.5368 16.954 15.5235 16.859 15.4946C16.8069 15.4782 16.7613 15.4592 16.7194 15.431C15.1567 14.6667 12.3448 15.5355 11.0529 16.063C10.9304 16.1137 10.8235 16.1656 10.7333 16.203C10.5619 16.2816 10.3637 16.2953 10.1903 16.223C10.0104 16.1533 9.8697 16.0143 9.79726 15.8394L7.52466 10.3528C7.3744 9.99009 7.54642 9.58493 7.90095 9.43808C8.25548 9.29123 8.6636 9.45609 8.81386 9.81884L10.8181 14.6576C10.96 14.5989 11.1302 14.5359 11.3161 14.4741C12.6633 14.0072 14.924 13.4122 16.7065 13.9413C16.9433 14.0026 17.1689 14.0913 17.3896 14.2048C17.6859 14.3551 17.8319 14.6893 17.7507 15.0038Z" fill="#ED1C24"/>
<path d="M20.6617 4.91126L22.9343 10.3978C23.0067 10.5727 23.0056 10.7705 22.9341 10.9443C22.8535 11.1143 22.7256 11.2431 22.5322 11.3232C22.4393 11.3541 22.3297 11.3995 22.2136 11.4476C20.918 11.9843 18.3062 13.3545 17.7508 15.0037C17.7406 15.0155 17.7395 15.0312 17.7357 15.0403C17.6949 15.1787 17.6185 15.2861 17.5159 15.3666C17.4955 15.3902 17.4724 15.4074 17.4466 15.4181C17.4133 15.4471 17.3811 15.4604 17.3424 15.4764C17.3037 15.4924 17.2651 15.5085 17.2275 15.5089C17.2017 15.5195 17.1732 15.5237 17.1421 15.5215C17.0502 15.5367 16.9541 15.5234 16.859 15.4945C16.807 15.4781 16.7613 15.4591 16.7194 15.4309C16.4397 15.266 16.3066 14.9265 16.4098 14.6105C16.4856 14.3742 16.5824 14.152 16.7065 13.9412C17.5928 12.3068 19.6121 11.1288 20.8949 10.5064C21.07 10.4187 21.2349 10.3428 21.3767 10.2841L19.3724 5.44529C19.2222 5.08254 19.3942 4.67737 19.7487 4.53052C20.1033 4.38367 20.5114 4.54851 20.6617 4.91126Z" fill="#ED1C24"/>
<path d="M23.3615 3.78936L12.9299 6.19026L4.66174 11.5351" fill="#ED1C24"/>
<path d="M23.3616 3.78936L12.9299 6.19026L4.66174 11.5351" stroke="#ED1C24" stroke-width="2.26902" stroke-miterlimit="10" stroke-linecap="round" stroke-linejoin="round"/>
<path d="M7.17027 17.5881C6.814 17.7357 6.40552 17.5651 6.25736 17.2074L4.07837 11.9468C3.93018 11.5891 4.09839 11.1796 4.45466 11.0321C4.81093 10.8845 5.21938 11.0551 5.36757 11.4128L7.54655 16.6734C7.69472 17.0311 7.52654 17.4406 7.17027 17.5881Z" fill="#ED1C24"/>
<path d="M6.55543 19.8005C6.41626 19.8582 6.25721 19.8711 6.10033 19.8271C5.72925 19.7218 5.5114 19.3348 5.61525 18.9623L6.22932 16.7503C6.33266 16.3784 6.71621 16.1614 7.08922 16.2659C7.46029 16.3712 7.67808 16.7583 7.57423 17.1308L6.96022 19.3427C6.90036 19.5579 6.74675 19.7213 6.55543 19.8005Z" fill="#ED1C24"/>
<path d="M8.27072 20.2443C7.91445 20.3919 7.50597 20.2212 7.35781 19.8635L6.25757 17.2073C6.10938 16.8496 6.27759 16.4401 6.63386 16.2926C6.99013 16.145 7.39858 16.3156 7.54677 16.6733L8.64701 19.3295C8.79517 19.6872 8.62699 20.0967 8.27072 20.2443Z" fill="#ED1C24"/>
<path d="M24.1503 13.7663C23.123 14.1918 21.0078 14.7257 18.2333 13.6167C17.8745 13.4733 17.6983 13.0656 17.8401 12.7064C17.9824 12.3466 18.3873 12.1722 18.7458 12.3149C21.933 13.589 23.979 12.3039 24.0635 12.2482C24.3857 12.0413 24.8181 12.1309 25.0282 12.453C25.2392 12.7754 25.1543 13.2059 24.8352 13.4185C24.8041 13.4396 24.5658 13.5942 24.1503 13.7663Z" fill="#ED1C24"/>
<path d="M11.32 19.0808C10.9039 19.2531 10.6266 19.312 10.5897 19.3191C10.2118 19.3949 9.84348 19.1484 9.76664 18.7689C9.69027 18.3903 9.93294 18.0237 10.3085 17.9457C10.4207 17.9229 12.7669 17.3787 14.1152 14.233C14.2678 13.8785 14.6774 13.7155 15.0325 13.8693C15.3867 14.0231 15.5504 14.4359 15.3981 14.7911C14.2205 17.537 12.3473 18.6553 11.32 19.0808Z" fill="#ED1C24"/>
<path d="M38.8726 33.1448C38.8399 33.1584 38.8064 33.1701 38.7715 33.1786C38.3971 33.2699 38.0186 33.0398 37.926 32.6647C37.9161 32.6251 36.9187 28.7249 34.0911 27.2882C32.6799 26.5713 31.012 26.5811 29.1297 27.3177C27.5828 29.6172 26.1953 31.2242 24.2101 32.0792C24.1966 32.0855 24.1827 32.0913 24.1688 32.097C24.1638 32.0991 24.16 32.1007 24.155 32.1027L24.126 32.1147C24.1166 32.1187 24.1084 32.122 24.099 32.1259C24.0895 32.1299 24.0801 32.1338 24.0703 32.137C22.0608 32.9368 19.9446 32.781 17.2248 32.2489C15.373 33.059 14.1867 34.2314 13.6956 35.7363C12.7123 38.7516 14.7647 42.2147 14.7858 42.2496C14.9855 42.5805 14.8806 43.0108 14.5513 43.211C14.2289 43.4083 13.7936 43.3047 13.593 42.9735C13.4942 42.8099 11.1863 38.9367 12.3656 35.3045C13.0037 33.3393 14.522 31.8485 16.8788 30.8723C17.0059 30.8196 17.1463 30.8059 17.2814 30.833C19.8781 31.353 21.8449 31.5306 23.6039 30.8132C25.3546 30.0777 26.6194 28.5606 28.0885 26.3565C28.1649 26.2419 28.2738 26.1523 28.401 26.0996C30.7578 25.1234 32.8855 25.104 34.7264 26.0423C38.1286 27.7769 39.2354 32.1475 39.2813 32.3331C39.3647 32.6735 39.1849 33.0155 38.8726 33.1448Z" fill="#ED1C24"/>
</svg>
