<svg width="30" height="30" viewBox="0 0 30 30" fill="none" xmlns="http://www.w3.org/2000/svg">
<path d="M1 1H9.4C10.8852 1 12.3096 1.65555 13.3598 2.82245C14.41 3.98934 15 5.57199 15 7.22222V29C15 27.7623 14.5575 26.5753 13.7698 25.7002C12.9822 24.825 11.9139 24.3333 10.8 24.3333H1V1Z" stroke="white" stroke-width="2" stroke-linecap="round" stroke-linejoin="round"/>
<path d="M29 1H20.6C19.1148 1 17.6904 1.65555 16.6402 2.82245C15.59 3.98934 15 5.57199 15 7.22222V29C15 27.7623 15.4425 26.5753 16.2302 25.7002C17.0178 24.825 18.0861 24.3333 19.2 24.3333H29V1Z" stroke="white" stroke-width="2" stroke-linecap="round" stroke-linejoin="round"/>
</svg>
