<svg width="46" height="39" viewBox="0 0 46 39" fill="none" xmlns="http://www.w3.org/2000/svg">
<path d="M35.7985 29.5308L34.3674 26.6565C33.6083 25.1319 32.2847 23.8749 30.6877 23.1622C29.0907 22.4495 27.3511 22.3394 25.8517 22.8561L14.5447 26.7525C13.0452 27.2692 11.9088 28.3704 11.3853 29.8138C10.8618 31.2572 10.9942 32.9246 11.7533 34.4493L13.1844 37.3236" stroke="#ED1C24" stroke-width="2" stroke-linecap="round" stroke-linejoin="round"/>
<path d="M17.873 19.0241C20.9954 17.9481 22.2451 14.5021 20.6644 11.3273C19.0836 8.15243 15.271 6.45094 12.1487 7.5269C9.02629 8.60286 7.77656 12.0488 9.3573 15.2237C10.938 18.3985 14.7507 20.1 17.873 19.0241Z" stroke="#ED1C24" stroke-width="2" stroke-linecap="round" stroke-linejoin="round"/>
<path d="M44.8158 26.5769L43.3847 23.7027C42.7496 22.4293 41.7166 21.3356 40.4479 20.5934C39.1793 19.8512 37.7468 19.5025 36.3754 19.6021" stroke="#ED1C24" stroke-width="2" stroke-linecap="round" stroke-linejoin="round"/>
<path d="M22.1351 4.30469C23.5089 4.20223 24.9448 4.54994 26.2166 5.29301C27.4883 6.03607 28.5236 7.13223 29.1591 8.40866C29.7946 9.68509 29.9943 11.0692 29.7266 12.3428C29.4589 13.6163 28.7391 14.7069 27.6806 15.4426" stroke="#ED1C24" stroke-width="2" stroke-linecap="round" stroke-linejoin="round"/>
</svg>
