<svg width="30" height="30" viewBox="0 0 30 30" fill="none" xmlns="http://www.w3.org/2000/svg">
<path d="M21.3635 28.9998V25.8887C21.3635 24.2385 20.8272 22.6558 19.8724 21.489C18.9177 20.3221 17.6228 19.6665 16.2727 19.6665H6.09088C4.7407 19.6665 3.44581 20.3221 2.49109 21.489C1.53636 22.6558 1 24.2385 1 25.8887V28.9998" stroke="white" stroke-width="2" stroke-linecap="round" stroke-linejoin="round"/>
<path d="M11.1827 13.4444C13.9943 13.4444 16.2736 10.6587 16.2736 7.22222C16.2736 3.78578 13.9943 1 11.1827 1C8.37106 1 6.0918 3.78578 6.0918 7.22222C6.0918 10.6587 8.37106 13.4444 11.1827 13.4444Z" stroke="white" stroke-width="2" stroke-linecap="round" stroke-linejoin="round"/>
<path d="M28.9998 28.9998V25.8887C28.999 24.51 28.6235 23.1707 27.9325 22.0811C27.2414 20.9915 26.2738 20.2133 25.1816 19.8687" stroke="white" stroke-width="2" stroke-linecap="round" stroke-linejoin="round"/>
<path d="M20.0898 1.20215C21.1849 1.54484 22.1555 2.32324 22.8486 3.41463C23.5418 4.50602 23.918 5.84833 23.918 7.22992C23.918 8.61152 23.5418 9.95382 22.8486 11.0452C22.1555 12.1366 21.1849 12.915 20.0898 13.2577" stroke="white" stroke-width="2" stroke-linecap="round" stroke-linejoin="round"/>
</svg>
