<svg width="39" height="38" viewBox="0 0 39 38" fill="none" xmlns="http://www.w3.org/2000/svg">
<path d="M9.77155 32.9805L6.09652 24.3577C4.63451 20.9273 4.63451 17.0729 6.09652 13.6425C7.55854 10.2121 10.3628 7.48669 13.8924 6.06577C17.422 4.64486 21.3879 4.64486 24.9175 6.06577C28.4471 7.48669 31.2514 10.2121 32.7134 13.6425L36.3884 22.2654" stroke="#ED1C24" stroke-width="2" stroke-linecap="round" stroke-linejoin="round"/>
<path d="M37.0007 23.7025C37.3256 24.4648 37.3256 25.3214 37.0007 26.0837C36.6758 26.846 36.0526 27.4516 35.2683 27.7674L33.7896 28.3627C33.0052 28.6784 32.1239 28.6784 31.3395 28.3627C30.5552 28.0469 29.932 27.4413 29.6071 26.679L27.7696 22.3675C27.4447 21.6052 27.4447 20.7487 27.7696 19.9864C28.0945 19.2241 28.7177 18.6184 29.502 18.3027L33.9382 16.5168L37.0007 23.7025ZM10.3838 34.4177C10.7087 35.18 11.3319 35.7856 12.1162 36.1014C12.9006 36.4171 13.7819 36.4171 14.5663 36.1014L16.045 35.5061C16.8293 35.1903 17.4525 34.5847 17.7774 33.8224C18.1023 33.0601 18.1023 32.2035 17.7774 31.4412L15.9399 27.1298C15.615 26.3675 14.9918 25.7618 14.2075 25.4461C13.4231 25.1303 12.5418 25.1303 11.7574 25.4461L7.32129 27.2319L10.3838 34.4177Z" stroke="#ED1C24" stroke-width="2" stroke-linecap="round" stroke-linejoin="round"/>
</svg>
