<svg width="28" height="28" viewBox="0 0 28 28" fill="none" xmlns="http://www.w3.org/2000/svg">
<path d="M14 1.75C7.23516 1.75 1.75 7.23516 1.75 14C1.75 20.7648 7.23516 26.25 14 26.25C20.7648 26.25 26.25 20.7648 26.25 14C26.25 7.23516 20.7648 1.75 14 1.75ZM14 24.1719C8.38359 24.1719 3.82812 19.6164 3.82812 14C3.82812 8.38359 8.38359 3.82812 14 3.82812C19.6164 3.82812 24.1719 8.38359 24.1719 14C24.1719 19.6164 19.6164 24.1719 14 24.1719Z" fill="white"/>
<path d="M15.6274 11.529L11.6199 12.0312L11.4764 12.6963L12.2639 12.8415C12.7784 12.964 12.8799 13.1495 12.7679 13.6623L11.4764 19.7312C11.1369 21.301 11.6602 22.0395 12.8904 22.0395C13.8442 22.0395 14.9519 21.5985 15.4542 20.993L15.6082 20.265C15.2582 20.573 14.7472 20.6955 14.4077 20.6955C13.9264 20.6955 13.7514 20.3578 13.8757 19.7628L15.6274 11.529ZM15.7499 7.875C15.7499 8.33913 15.5655 8.78425 15.2374 9.11244C14.9092 9.44063 14.464 9.625 13.9999 9.625C13.5358 9.625 13.0907 9.44063 12.7625 9.11244C12.4343 8.78425 12.2499 8.33913 12.2499 7.875C12.2499 7.41087 12.4343 6.96575 12.7625 6.63756C13.0907 6.30937 13.5358 6.125 13.9999 6.125C14.464 6.125 14.9092 6.30937 15.2374 6.63756C15.5655 6.96575 15.7499 7.41087 15.7499 7.875Z" fill="white"/>
</svg>
