<svg width="55" height="55" viewBox="0 0 55 55" fill="none" xmlns="http://www.w3.org/2000/svg">
<rect width="55" height="55" fill="white"/>
<path d="M55 27.5C55 12.3123 42.6877 0 27.5 0C12.3123 0 0 12.312 0 27.5C0 41.2259 10.0564 52.603 23.2031 54.6659V35.4492H16.2207V27.5H23.2031V21.4414C23.2031 14.5492 27.3088 10.7422 33.5902 10.7422C36.5991 10.7422 39.7461 11.2793 39.7461 11.2793V18.0469H36.2785C32.8621 18.0469 31.7969 20.1667 31.7969 22.3416V27.5H39.4238L38.2046 35.4492H31.7969V54.6659C44.9436 52.603 55 41.2261 55 27.5Z" fill="#1877F2"/>
<path d="M38.2046 35.4492L39.4238 27.5H31.7969V22.3416C31.7969 20.1665 32.8623 18.0469 36.2785 18.0469H39.7461V11.2793C39.7461 11.2793 36.5991 10.7422 33.5902 10.7422C27.3088 10.7422 23.2031 14.5492 23.2031 21.4414V27.5H16.2207V35.4492H23.2031V54.6659C24.6246 54.8887 26.0612 55.0004 27.5 55C28.9388 55.0004 30.3754 54.8887 31.7969 54.6659V35.4492H38.2046Z" fill="white"/>
</svg>
