<svg width="28" height="28" viewBox="0 0 28 28" fill="none" xmlns="http://www.w3.org/2000/svg">
<path d="M27.4194 13.6684L15.4856 1.13735L14.6857 0.296973C14.5034 0.106757 14.257 0 14.0001 0C13.7432 0 13.4967 0.106757 13.3144 0.296973L0.580756 13.6684C0.394001 13.8639 0.246405 14.0966 0.146681 14.353C0.0469573 14.6093 -0.00287419 14.8841 0.000128015 15.161C0.0124818 16.3031 0.917397 17.2149 2.00453 17.2149H3.31712V27.7829H24.683V17.2149H26.0234C26.5515 17.2149 27.0487 16.9975 27.4224 16.6049C27.6065 16.4122 27.7522 16.1831 27.8514 15.9308C27.9505 15.6785 28.001 15.408 28 15.1351C28 14.5834 27.7931 14.061 27.4194 13.6684ZM15.7296 25.4468H12.2705V18.8275H15.7296V25.4468ZM22.4593 14.8787V25.4468H17.7062V18.0488C17.7062 17.3317 17.1534 16.7509 16.4708 16.7509H11.5293C10.8468 16.7509 10.2939 17.3317 10.2939 18.0488V25.4468H5.5408V14.8787H2.57589L14.0031 2.88301L14.7166 3.63254L25.4273 14.8787H22.4593Z" fill="white"/>
</svg>
