<svg width="29" height="31" viewBox="0 0 29 31" fill="none" xmlns="http://www.w3.org/2000/svg">
<path d="M25.3124 8.5501L9.49158 1.53974L8.43097 1.06944C8.18979 0.963446 7.92122 0.959137 7.68388 1.05745C7.44653 1.15576 7.25967 1.34871 7.16408 1.5942L0.516745 18.8208C0.418998 19.0728 0.371713 19.3443 0.377681 19.6193C0.38365 19.8943 0.442751 20.1672 0.551496 20.4219C0.999988 21.4724 2.18494 21.9685 3.18932 21.5524L4.40199 21.0501L8.4462 30.8137L28.1857 22.6374L24.1415 12.8738L25.3798 12.3608C25.8678 12.1587 26.244 11.7676 26.439 11.2619C26.5352 11.0134 26.5822 10.7459 26.5773 10.4749C26.5723 10.2038 26.5155 9.93465 26.4101 9.68287C26.199 9.17326 25.8079 8.76981 25.3124 8.5501V8.5501ZM19.0198 23.9053L15.824 25.229L13.291 19.1137L16.4867 17.79L19.0198 23.9053ZM21.193 11.5664L25.2373 21.33L20.8459 23.1489L18.0149 16.3141C17.7405 15.6516 17.0074 15.3266 16.3769 15.5878L11.8115 17.4788C11.1809 17.74 10.8924 18.4881 11.1668 19.1506L13.9979 25.9855L9.60659 27.8044L5.56238 18.0408L2.82316 19.1754L8.79001 3.71982L9.73597 4.13928L23.9351 10.4306L21.193 11.5664Z" fill="#ED1C24"/>
</svg>
