<svg width="55" height="55" viewBox="0 0 55 55" fill="none" xmlns="http://www.w3.org/2000/svg">
<path d="M11.9506 20V5.902H14.3256V20H11.9506ZM22.0028 20.133C20.9641 20.133 20.0394 19.9113 19.2288 19.468C18.4181 19.012 17.7784 18.3913 17.3098 17.606C16.8411 16.8207 16.6068 15.9277 16.6068 14.927C16.6068 13.9137 16.8411 13.0207 17.3098 12.248C17.7784 11.4627 18.4181 10.8483 19.2288 10.405C20.0394 9.96167 20.9641 9.74 22.0028 9.74C23.0541 9.74 23.9851 9.96167 24.7958 10.405C25.6191 10.8483 26.2588 11.4563 26.7148 12.229C27.1834 13.0017 27.4178 13.901 27.4178 14.927C27.4178 15.9277 27.1834 16.8207 26.7148 17.606C26.2588 18.3913 25.6191 19.012 24.7958 19.468C23.9851 19.9113 23.0541 20.133 22.0028 20.133ZM22.0028 18.1C22.5854 18.1 23.1048 17.9733 23.5608 17.72C24.0168 17.4667 24.3714 17.0993 24.6248 16.618C24.8908 16.1367 25.0238 15.573 25.0238 14.927C25.0238 14.2683 24.8908 13.7047 24.6248 13.236C24.3714 12.7547 24.0168 12.3873 23.5608 12.134C23.1048 11.8807 22.5918 11.754 22.0218 11.754C21.4391 11.754 20.9198 11.8807 20.4638 12.134C20.0204 12.3873 19.6658 12.7547 19.3998 13.236C19.1338 13.7047 19.0008 14.2683 19.0008 14.927C19.0008 15.573 19.1338 16.1367 19.3998 16.618C19.6658 17.0993 20.0204 17.4667 20.4638 17.72C20.9198 17.9733 21.4328 18.1 22.0028 18.1ZM29.6889 20V5.902H32.0639V20H29.6889ZM35.181 20V5.902H37.556V20H35.181ZM40.6732 20V5.902H43.0482V20H40.6732ZM12.5814 43V28.902H14.9564V43H12.5814ZM18.0736 43V28.902H20.4486V43H18.0736ZM23.5658 43V28.902H25.9408V43H23.5658ZM29.058 43V28.902H31.433V43H29.058ZM34.5502 43V28.902H36.9252V43H34.5502ZM40.0424 43V28.902H42.4174V43H40.0424Z" fill="black"/>
<path d="M10.3926 22.375H44.6062V23.325H10.3926V22.375ZM11.0234 45.375H27.4988V46.325H11.0234V45.375Z" fill="black"/>
<a href="https://www.instagram.com/incubator_guc/">
<rect fill="black" fill-opacity="0" x="0.392578" y="-10.5805" width="34.2137" height="23.161"/>
</a>
<a href="https://www.instagram.com/incubator_guc/">
<rect fill="black" fill-opacity="0" x="1.02344" y="12.4195" width="16.4754" height="23.161"/>
</a>
<circle cx="27.5" cy="27.5" r="27.5" fill="url(#paint0_linear_152_3055)"/>
<path d="M27.5004 19.4215C23.0299 19.4215 19.4219 23.0294 19.4219 27.4999C19.4219 31.9705 23.0299 35.5784 27.5004 35.5784C31.9709 35.5784 35.5789 31.9705 35.5789 27.4999C35.5789 23.0294 31.9709 19.4215 27.5004 19.4215ZM27.5004 32.7504C24.6093 32.7504 22.25 30.391 22.25 27.4999C22.25 24.6089 24.6093 22.2495 27.5004 22.2495C30.3915 22.2495 32.7508 24.6089 32.7508 27.4999C32.7508 30.391 30.3915 32.7504 27.5004 32.7504ZM35.9097 17.2078C34.866 17.2078 34.023 18.0507 34.023 19.0945C34.023 20.1383 34.866 20.9812 35.9097 20.9812C36.9535 20.9812 37.7964 20.1423 37.7964 19.0945C37.7967 18.8467 37.7481 18.6012 37.6534 18.3722C37.5587 18.1431 37.4198 17.935 37.2445 17.7597C37.0693 17.5845 36.8612 17.4455 36.6321 17.3508C36.4031 17.2561 36.1576 17.2075 35.9097 17.2078ZM43.2477 27.4999C43.2477 25.3257 43.2674 23.1712 43.1453 21.0009C43.0232 18.4801 42.4481 16.2428 40.6048 14.3995C38.7575 12.5522 36.5242 11.9811 34.0034 11.859C31.8291 11.7368 29.6746 11.7565 27.5043 11.7565C25.3301 11.7565 23.1756 11.7368 21.0053 11.859C18.4845 11.9811 16.2472 12.5561 14.4039 14.3995C12.5566 16.2468 11.9854 18.4801 11.8633 21.0009C11.7412 23.1751 11.7609 25.3297 11.7609 27.4999C11.7609 29.6702 11.7412 31.8287 11.8633 33.999C11.9854 36.5198 12.5605 38.757 14.4039 40.6004C16.2512 42.4477 18.4845 43.0188 21.0053 43.1409C23.1795 43.263 25.334 43.2433 27.5043 43.2433C29.6785 43.2433 31.8331 43.263 34.0034 43.1409C36.5242 43.0188 38.7614 42.4438 40.6048 40.6004C42.4521 38.7531 43.0232 36.5198 43.1453 33.999C43.2714 31.8287 43.2477 29.6742 43.2477 27.4999ZM39.7816 36.7876C39.494 37.5045 39.1474 38.0402 38.5921 38.5916C38.0367 39.147 37.5049 39.4936 36.7881 39.7811C34.7163 40.6043 29.7967 40.4192 27.5004 40.4192C25.2041 40.4192 20.2806 40.6043 18.2088 39.7851C17.4919 39.4975 16.9562 39.1509 16.4048 38.5955C15.8494 38.0402 15.5028 37.5084 15.2153 36.7916C14.396 34.7158 14.5811 29.7963 14.5811 27.4999C14.5811 25.2036 14.396 20.2801 15.2153 18.2083C15.5028 17.4914 15.8494 16.9558 16.4048 16.4043C16.9602 15.8529 17.4919 15.5023 18.2088 15.2148C20.2806 14.3955 25.2041 14.5807 27.5004 14.5807C29.7967 14.5807 34.7202 14.3955 36.792 15.2148C37.5089 15.5023 38.0446 15.849 38.596 16.4043C39.1514 16.9597 39.498 17.4914 39.7855 18.2083C40.6048 20.2801 40.4197 25.2036 40.4197 27.4999C40.4197 29.7963 40.6048 34.7158 39.7816 36.7876Z" fill="white"/>
<defs>
<linearGradient id="paint0_linear_152_3055" x1="48.7667" y1="8.8" x2="2.93333" y2="45.4667" gradientUnits="userSpaceOnUse">
<stop stop-color="#9000DC"/>
<stop offset="0.419792" stop-color="#EE1C8E"/>
<stop offset="1" stop-color="#FEDB16"/>
</linearGradient>
</defs>
</svg>
