<svg width="39" height="38" viewBox="0 0 39 38" fill="none" xmlns="http://www.w3.org/2000/svg">
<path d="M9.77155 32.9805L6.09652 24.3577C4.63451 20.9273 4.63451 17.0729 6.09652 13.6425C7.55854 10.2121 10.3628 7.48669 13.8924 6.06577C17.422 4.64486 21.3879 4.64486 24.9175 6.06577C28.4471 7.48669 31.2514 10.2121 32.7134 13.6425L36.3884 22.2654" stroke="#ED1C24" stroke-width="2" stroke-linecap="round" stroke-linejoin="round"/>
<path d="M37.0017 23.7025C37.3266 24.4648 37.3266 25.3214 37.0017 26.0837C36.6768 26.846 36.0536 27.4516 35.2693 27.7674L33.7905 28.3627C33.0062 28.6784 32.1249 28.6784 31.3405 28.3627C30.5562 28.0469 29.933 27.4413 29.6081 26.679L27.7706 22.3675C27.4457 21.6052 27.4457 20.7487 27.7706 19.9864C28.0955 19.2241 28.7186 18.6184 29.503 18.3027L33.9392 16.5168L37.0017 23.7025ZM10.3848 34.4177C10.7097 35.18 11.3329 35.7856 12.1172 36.1014C12.9016 36.4171 13.7829 36.4171 14.5672 36.1014L16.0459 35.5061C16.8303 35.1903 17.4535 34.5847 17.7784 33.8224C18.1033 33.0601 18.1033 32.2035 17.7784 31.4412L15.9409 27.1298C15.616 26.3675 14.9928 25.7618 14.2084 25.4461C13.4241 25.1303 12.5428 25.1303 11.7584 25.4461L7.32227 27.2319L10.3848 34.4177Z" stroke="#ED1C24" stroke-width="2" stroke-linecap="round" stroke-linejoin="round"/>
</svg>
