<svg width="50" height="50" viewBox="0 0 50 50" fill="none" xmlns="http://www.w3.org/2000/svg">
<path d="M47.5001 36.25V13.75C47.5001 11.675 45.8251 10 43.7501 10H8.7251C6.6501 10 4.9751 11.675 4.9751 13.75V36.25C4.9751 38.325 6.6501 40 8.7251 40H43.7501C45.8251 40 47.5001 38.325 47.5001 36.25ZM44.2251 13.475C45.0501 14.3 44.6001 15.15 44.1501 15.575L34.0001 24.875L43.7501 35.025C44.0501 35.375 44.2501 35.925 43.9001 36.3C43.5751 36.7 42.8251 36.675 42.5001 36.425L31.5751 27.1L26.2251 31.975L20.9001 27.1L9.9751 36.425C9.6501 36.675 8.9001 36.7 8.5751 36.3C8.2251 35.925 8.4251 35.375 8.7251 35.025L18.4751 24.875L8.3251 15.575C7.8751 15.15 7.4251 14.3 8.2501 13.475C9.0751 12.65 9.9251 13.05 10.6251 13.65L26.2251 26.25L41.8501 13.65C42.5501 13.05 43.4001 12.65 44.2251 13.475Z" fill="black"/>
</svg>
