<svg width="42" height="36" viewBox="0 0 42 36" fill="none" xmlns="http://www.w3.org/2000/svg">
<path d="M6.4165 35.7497C4.68039 35.7497 3.2047 35.142 1.98942 33.9268C0.774143 32.7115 0.166504 31.2358 0.166504 29.4997V14.9163C0.166504 13.1802 0.774143 11.7045 1.98942 10.4893C3.2047 9.27398 4.68039 8.66634 6.4165 8.66634C7.354 8.66634 8.21373 8.85731 8.99567 9.23926C9.77623 9.6212 10.4616 10.1247 11.0519 10.7497H12.6665V0.333008H33.4998V10.7497H35.5832C37.3193 10.7497 38.795 11.3573 40.0103 12.5726C41.2255 13.7879 41.8332 15.2636 41.8332 16.9997V33.6663H11.0519C10.4616 34.2913 9.77623 34.7948 8.99567 35.1768C8.21373 35.5587 7.354 35.7497 6.4165 35.7497ZM6.4165 31.583C7.00678 31.583 7.50192 31.383 7.90192 30.983C8.30053 30.5844 8.49984 30.09 8.49984 29.4997V14.9163C8.49984 14.3261 8.30053 13.8309 7.90192 13.4309C7.50192 13.0323 7.00678 12.833 6.4165 12.833C5.82623 12.833 5.33109 13.0323 4.93109 13.4309C4.53248 13.8309 4.33317 14.3261 4.33317 14.9163V29.4997C4.33317 30.09 4.53248 30.5844 4.93109 30.983C5.33109 31.383 5.82623 31.583 6.4165 31.583ZM16.8332 10.7497H29.3332V4.49967H16.8332V10.7497ZM12.6665 29.4997H37.6665V16.9997C37.6665 16.4094 37.4665 15.9143 37.0665 15.5143C36.6679 15.1156 36.1735 14.9163 35.5832 14.9163H12.6665V29.4997ZM27.2498 21.1663C27.8401 21.1663 28.3353 20.9663 28.7353 20.5663C29.1339 20.1677 29.3332 19.6733 29.3332 19.083C29.3332 18.4927 29.1339 17.9976 28.7353 17.5976C28.3353 17.199 27.8401 16.9997 27.2498 16.9997C26.6596 16.9997 26.1651 17.199 25.7665 17.5976C25.3665 17.9976 25.1665 18.4927 25.1665 19.083C25.1665 19.6733 25.3665 20.1677 25.7665 20.5663C26.1651 20.9663 26.6596 21.1663 27.2498 21.1663ZM33.4998 21.1663C34.0901 21.1663 34.5846 20.9663 34.9832 20.5663C35.3832 20.1677 35.5832 19.6733 35.5832 19.083C35.5832 18.4927 35.3832 17.9976 34.9832 17.5976C34.5846 17.199 34.0901 16.9997 33.4998 16.9997C32.9096 16.9997 32.4151 17.199 32.0165 17.5976C31.6165 17.9976 31.4165 18.4927 31.4165 19.083C31.4165 19.6733 31.6165 20.1677 32.0165 20.5663C32.4151 20.9663 32.9096 21.1663 33.4998 21.1663ZM27.2498 27.4163C27.8401 27.4163 28.3353 27.2163 28.7353 26.8163C29.1339 26.4177 29.3332 25.9233 29.3332 25.333C29.3332 24.7427 29.1339 24.2476 28.7353 23.8476C28.3353 23.449 27.8401 23.2497 27.2498 23.2497C26.6596 23.2497 26.1651 23.449 25.7665 23.8476C25.3665 24.2476 25.1665 24.7427 25.1665 25.333C25.1665 25.9233 25.3665 26.4177 25.7665 26.8163C26.1651 27.2163 26.6596 27.4163 27.2498 27.4163ZM33.4998 27.4163C34.0901 27.4163 34.5846 27.2163 34.9832 26.8163C35.3832 26.4177 35.5832 25.9233 35.5832 25.333C35.5832 24.7427 35.3832 24.2476 34.9832 23.8476C34.5846 23.449 34.0901 23.2497 33.4998 23.2497C32.9096 23.2497 32.4151 23.449 32.0165 23.8476C31.6165 24.2476 31.4165 24.7427 31.4165 25.333C31.4165 25.9233 31.6165 26.4177 32.0165 26.8163C32.4151 27.2163 32.9096 27.4163 33.4998 27.4163ZM14.7498 27.4163H23.0832V16.9997H14.7498V27.4163ZM12.6665 29.4997V14.9163V29.4997Z" fill="black"/>
</svg>
