<svg width="40" height="40" viewBox="0 0 40 40" fill="none" xmlns="http://www.w3.org/2000/svg">
<path d="M37.4925 40C16.165 40.03 -0.0224766 23.65 2.34267e-05 2.5075C2.34267e-05 1.125 1.12002 0 2.50002 0H9.10002C10.3375 0 11.39 0.91 11.5725 2.135C12.0078 5.07263 12.8623 7.93261 14.11 10.6275L14.3675 11.1825C14.5405 11.556 14.5777 11.9781 14.4727 12.3761C14.3678 12.774 14.1272 13.1229 13.7925 13.3625C11.7475 14.8225 10.9675 17.76 12.56 20.05C14.565 22.9333 17.0674 25.4365 19.95 27.4425C22.2425 29.0325 25.18 28.2525 26.6375 26.21C26.8768 25.8743 27.226 25.6328 27.6245 25.5274C28.0231 25.4219 28.446 25.4591 28.82 25.6325L29.3725 25.8875C32.0675 27.1375 34.9275 27.9925 37.865 28.4275C39.09 28.61 40 29.6625 40 30.9025V37.5C40 37.8285 39.9353 38.1538 39.8095 38.4573C39.6837 38.7607 39.4993 39.0364 39.2669 39.2686C39.0345 39.5008 38.7586 39.6849 38.455 39.8104C38.1514 39.9359 37.826 40.0003 37.4975 40H37.4925Z" fill="black"/>
</svg>
