<svg width="39" height="39" viewBox="0 0 39 39" fill="none" xmlns="http://www.w3.org/2000/svg">
<path d="M1.70828 12.4232L9.46887 9.20871C10.841 8.64034 12.4079 8.70091 13.8247 9.37708C15.2415 10.0533 16.3922 11.2896 17.0237 12.8143L25.3577 32.9343C24.8841 31.7908 24.021 30.8635 22.9584 30.3564C21.8958 29.8493 20.7207 29.8039 19.6916 30.2301L10.6376 33.9804L1.70828 12.4232Z" stroke="#ED1C24" stroke-width="2" stroke-linecap="round" stroke-linejoin="round"/>
<path d="M27.5769 1.70811L19.8163 4.92265C18.4442 5.49101 17.3791 6.64175 16.8554 8.12172C16.3317 9.60168 16.3922 11.2896 17.0238 12.8143L25.3577 32.9343C24.8841 31.7908 24.8387 30.5249 25.2315 29.4149C25.6242 28.3049 26.4231 27.4419 27.4522 27.0156L36.5062 23.2653L27.5769 1.70811Z" stroke="#ED1C24" stroke-width="2" stroke-linecap="round" stroke-linejoin="round"/>
</svg>
