<svg width="50" height="50" viewBox="0 0 50 50" fill="none" xmlns="http://www.w3.org/2000/svg">
<path d="M25 50C11.1914 50 0 38.8086 0 25C0 11.1914 11.1914 0 25 0C38.8086 0 50 11.1914 50 25C50 38.8086 38.8086 50 25 50ZM22.6562 25C22.6562 25.7812 23.0469 26.5137 23.7012 26.8652L33.0762 33.1152C34.1504 33.916 35.6055 33.623 36.2402 32.5488C37.041 31.4746 36.748 30.0195 35.6738 29.2969L27.3438 23.75V11.7188C27.3438 10.4199 26.2988 9.375 24.9121 9.375C23.7012 9.375 22.5684 10.4199 22.5684 11.7188L22.6562 25Z" fill="white"/>
</svg>
