<svg width="63" height="50" viewBox="0 0 63 50" fill="none" xmlns="http://www.w3.org/2000/svg">
<path d="M20.3125 34.375C20.0791 34.375 19.8457 34.4092 19.6231 34.4814C18.3574 34.8926 17.0264 35.1562 15.625 35.1562C14.2236 35.1562 12.8926 34.8926 11.626 34.4814C11.4033 34.4092 11.1709 34.375 10.9375 34.375C4.87696 34.375 -0.0322214 39.3047 5.17371e-06 45.373C0.013677 47.9375 2.12208 50 4.6875 50H26.5625C29.1279 50 31.2363 47.9375 31.25 45.373C31.2822 39.3047 26.3731 34.375 20.3125 34.375ZM15.625 31.25C20.8027 31.25 25 27.0527 25 21.875C25 16.6973 20.8027 12.5 15.625 12.5C10.4473 12.5 6.25001 16.6973 6.25001 21.875C6.25001 27.0527 10.4473 31.25 15.625 31.25ZM57.8125 0H20.3125C17.7275 0 15.625 2.17285 15.625 4.84277V9.375C17.9121 9.375 20.0293 10.0371 21.875 11.1133V6.25H56.25V34.375H50V28.125H37.5V34.375H30.0547C31.9199 36.0049 33.2891 38.1572 33.9307 40.625H57.8125C60.3975 40.625 62.5 38.4521 62.5 35.7822V4.84277C62.5 2.17285 60.3975 0 57.8125 0Z" fill="white"/>
</svg>
