<svg width="30" height="30" viewBox="0 0 30 30" fill="none" xmlns="http://www.w3.org/2000/svg">
<path d="M1 24.3333V15C1 11.287 2.475 7.72601 5.1005 5.10051C7.72601 2.475 11.287 1 15 1C18.713 1 22.274 2.475 24.8995 5.10051C27.525 7.72601 29 11.287 29 15V24.3333" stroke="white" stroke-width="2" stroke-linecap="round" stroke-linejoin="round"/>
<path d="M29 25.8891C29 26.7142 28.6722 27.5055 28.0888 28.089C27.5053 28.6724 26.714 29.0002 25.8889 29.0002H24.3333C23.5082 29.0002 22.7169 28.6724 22.1334 28.089C21.55 27.5055 21.2222 26.7142 21.2222 25.8891V21.2224C21.2222 20.3973 21.55 19.606 22.1334 19.0226C22.7169 18.4391 23.5082 18.1113 24.3333 18.1113H29V25.8891ZM1 25.8891C1 26.7142 1.32778 27.5055 1.91122 28.089C2.49467 28.6724 3.28599 29.0002 4.11111 29.0002H5.66667C6.49178 29.0002 7.28311 28.6724 7.86655 28.089C8.45 27.5055 8.77778 26.7142 8.77778 25.8891V21.2224C8.77778 20.3973 8.45 19.606 7.86655 19.0226C7.28311 18.4391 6.49178 18.1113 5.66667 18.1113H1V25.8891Z" stroke="white" stroke-width="2" stroke-linecap="round" stroke-linejoin="round"/>
</svg>
