<svg width="120" height="46" viewBox="0 0 120 46" fill="none" xmlns="http://www.w3.org/2000/svg">
<rect y="0.220703" width="120" height="45.7143" rx="5" fill="#ED1C24"/>
<path d="M27.16 30.4141V16.4141H33.52C35.04 16.4141 36.38 16.7074 37.54 17.2941C38.7 17.8674 39.6067 18.6741 40.26 19.7141C40.9133 20.7541 41.24 21.9874 41.24 23.4141C41.24 24.8274 40.9133 26.0607 40.26 27.1141C39.6067 28.1541 38.7 28.9674 37.54 29.5541C36.38 30.1274 35.04 30.4141 33.52 30.4141H27.16ZM30.4 27.7541H33.36C34.2933 27.7541 35.1 27.5807 35.78 27.2341C36.4733 26.8741 37.0067 26.3674 37.38 25.7141C37.7667 25.0607 37.96 24.2941 37.96 23.4141C37.96 22.5207 37.7667 21.7541 37.38 21.1141C37.0067 20.4607 36.4733 19.9607 35.78 19.6141C35.1 19.2541 34.2933 19.0741 33.36 19.0741H30.4V27.7541ZM48.8034 30.5741C47.5768 30.5741 46.4968 30.3341 45.5634 29.8541C44.6434 29.3741 43.9301 28.7207 43.4234 27.8941C42.9168 27.0541 42.6634 26.1007 42.6634 25.0341C42.6634 23.9541 42.9101 23.0007 43.4034 22.1741C43.9101 21.3341 44.5968 20.6807 45.4634 20.2141C46.3301 19.7341 47.3101 19.4941 48.4034 19.4941C49.4568 19.4941 50.4034 19.7207 51.2434 20.1741C52.0968 20.6141 52.7701 21.2541 53.2634 22.0941C53.7568 22.9207 54.0034 23.9141 54.0034 25.0741C54.0034 25.1941 53.9968 25.3341 53.9834 25.4941C53.9701 25.6407 53.9568 25.7807 53.9434 25.9141H45.2034V24.0941H52.3034L51.1034 24.6341C51.1034 24.0741 50.9901 23.5874 50.7634 23.1741C50.5368 22.7607 50.2234 22.4407 49.8234 22.2141C49.4234 21.9741 48.9568 21.8541 48.4234 21.8541C47.8901 21.8541 47.4168 21.9741 47.0034 22.2141C46.6034 22.4407 46.2901 22.7674 46.0634 23.1941C45.8368 23.6074 45.7234 24.1007 45.7234 24.6741V25.1541C45.7234 25.7407 45.8501 26.2607 46.1034 26.7141C46.3701 27.1541 46.7368 27.4941 47.2034 27.7341C47.6834 27.9607 48.2434 28.0741 48.8834 28.0741C49.4568 28.0741 49.9568 27.9874 50.3834 27.8141C50.8234 27.6407 51.2234 27.3807 51.5834 27.0341L53.2434 28.8341C52.7501 29.3941 52.1301 29.8274 51.3834 30.1341C50.6368 30.4274 49.7768 30.5741 48.8034 30.5741ZM56.0806 30.4141V15.5741H59.2006V30.4141H56.0806ZM67.4363 30.5741C66.2096 30.5741 65.1296 30.3341 64.1963 29.8541C63.2763 29.3741 62.5629 28.7207 62.0563 27.8941C61.5496 27.0541 61.2963 26.1007 61.2963 25.0341C61.2963 23.9541 61.5429 23.0007 62.0363 22.1741C62.5429 21.3341 63.2296 20.6807 64.0963 20.2141C64.9629 19.7341 65.9429 19.4941 67.0363 19.4941C68.0896 19.4941 69.0363 19.7207 69.8763 20.1741C70.7296 20.6141 71.4029 21.2541 71.8963 22.0941C72.3896 22.9207 72.6363 23.9141 72.6363 25.0741C72.6363 25.1941 72.6296 25.3341 72.6163 25.4941C72.6029 25.6407 72.5896 25.7807 72.5763 25.9141H63.8363V24.0941H70.9362L69.7363 24.6341C69.7363 24.0741 69.6229 23.5874 69.3963 23.1741C69.1696 22.7607 68.8563 22.4407 68.4563 22.2141C68.0563 21.9741 67.5896 21.8541 67.0563 21.8541C66.5229 21.8541 66.0496 21.9741 65.6363 22.2141C65.2363 22.4407 64.9229 22.7674 64.6963 23.1941C64.4696 23.6074 64.3563 24.1007 64.3563 24.6741V25.1541C64.3563 25.7407 64.4829 26.2607 64.7363 26.7141C65.0029 27.1541 65.3696 27.4941 65.8363 27.7341C66.3163 27.9607 66.8763 28.0741 67.5163 28.0741C68.0896 28.0741 68.5896 27.9874 69.0163 27.8141C69.4563 27.6407 69.8563 27.3807 70.2163 27.0341L71.8763 28.8341C71.3829 29.3941 70.7629 29.8274 70.0163 30.1341C69.2696 30.4274 68.4096 30.5741 67.4363 30.5741ZM79.1134 30.5741C77.8468 30.5741 76.8601 30.2541 76.1534 29.6141C75.4468 28.9607 75.0934 27.9941 75.0934 26.7141V17.2741H78.2134V26.6741C78.2134 27.1274 78.3334 27.4807 78.5734 27.7341C78.8134 27.9741 79.1401 28.0941 79.5534 28.0941C80.0468 28.0941 80.4668 27.9607 80.8134 27.6941L81.6534 29.8941C81.3334 30.1207 80.9468 30.2941 80.4934 30.4141C80.0534 30.5207 79.5934 30.5741 79.1134 30.5741ZM73.4334 22.2941V19.8941H80.8934V22.2941H73.4334ZM88.4128 30.5741C87.1861 30.5741 86.1061 30.3341 85.1728 29.8541C84.2528 29.3741 83.5395 28.7207 83.0328 27.8941C82.5261 27.0541 82.2728 26.1007 82.2728 25.0341C82.2728 23.9541 82.5195 23.0007 83.0128 22.1741C83.5195 21.3341 84.2061 20.6807 85.0728 20.2141C85.9395 19.7341 86.9195 19.4941 88.0128 19.4941C89.0661 19.4941 90.0128 19.7207 90.8528 20.1741C91.7061 20.6141 92.3795 21.2541 92.8728 22.0941C93.3661 22.9207 93.6128 23.9141 93.6128 25.0741C93.6128 25.1941 93.6061 25.3341 93.5928 25.4941C93.5795 25.6407 93.5661 25.7807 93.5528 25.9141H84.8128V24.0941H91.9128L90.7128 24.6341C90.7128 24.0741 90.5995 23.5874 90.3728 23.1741C90.1461 22.7607 89.8328 22.4407 89.4328 22.2141C89.0328 21.9741 88.5661 21.8541 88.0328 21.8541C87.4995 21.8541 87.0261 21.9741 86.6128 22.2141C86.2128 22.4407 85.8995 22.7674 85.6728 23.1941C85.4461 23.6074 85.3328 24.1007 85.3328 24.6741V25.1541C85.3328 25.7407 85.4595 26.2607 85.7128 26.7141C85.9795 27.1541 86.3461 27.4941 86.8128 27.7341C87.2928 27.9607 87.8528 28.0741 88.4928 28.0741C89.0661 28.0741 89.5661 27.9874 89.9928 27.8141C90.4328 27.6407 90.8328 27.3807 91.1928 27.0341L92.8528 28.8341C92.3595 29.3941 91.7395 29.8274 90.9928 30.1341C90.2461 30.4274 89.3861 30.5741 88.4128 30.5741Z" fill="white"/>
</svg>
