<svg width="30" height="29" viewBox="0 0 30 29" fill="none" xmlns="http://www.w3.org/2000/svg">
<rect width="30" height="28.6047" rx="10" fill="white"/>
<path d="M22.267 20.7045L15.6372 14.3393L22.235 8.00496C22.3144 7.92887 22.3144 7.80522 22.235 7.72899C22.1556 7.6529 22.0271 7.6529 21.9477 7.72899L15.3499 14.0633L8.75255 7.72899C8.67315 7.65277 8.54464 7.6529 8.46524 7.72899C8.38585 7.80522 8.38585 7.92873 8.46524 8.00496L15.0626 14.3393L8.43259 20.7045C8.3532 20.7807 8.3532 20.9042 8.43259 20.9805C8.47222 21.0185 8.52427 21.0377 8.57631 21.0377C8.62836 21.0377 8.68027 21.0185 8.72004 20.9805L15.3501 14.6152L21.9798 20.9805C22.0194 21.0185 22.0715 21.0377 22.1235 21.0377C22.1756 21.0377 22.2275 21.0185 22.2672 20.9805C22.3464 20.9042 22.3464 20.7807 22.267 20.7045Z" fill="#A3A3A3"/>
</svg>
