<svg width="178" height="178" viewBox="0 0 178 178" fill="none" xmlns="http://www.w3.org/2000/svg">
<circle cx="89" cy="89" r="85" fill="#43BB64"/>
<g clip-path="url(#clip0_1621_14562)">
<path d="M88.8889 0C71.3084 0 54.1226 5.21324 39.5049 14.9805C24.8872 24.7477 13.4941 38.6303 6.7663 54.8726C0.0385137 71.1149 -1.72178 88.9875 1.70801 106.23C5.13781 123.473 13.6037 139.311 26.035 151.743C38.4663 164.174 54.3048 172.64 71.5476 176.07C88.7903 179.5 106.663 177.739 122.905 171.012C139.148 164.284 153.03 152.891 162.797 138.273C172.565 123.655 177.778 106.469 177.778 88.8889C177.778 65.3141 168.413 42.7048 151.743 26.035C135.073 9.36505 112.464 0 88.8889 0ZM146.944 59.0556L73.9445 132L30.8334 88.8889C29.3599 87.4155 28.5322 85.4171 28.5322 83.3333C28.5322 81.2496 29.3599 79.2512 30.8334 77.7778C32.3068 76.3043 34.3052 75.4766 36.3889 75.4766C38.4727 75.4766 40.4711 76.3043 41.9445 77.7778L74.0556 109.889L135.944 48.0556C136.674 47.326 137.54 46.7473 138.493 46.3524C139.447 45.9576 140.468 45.7544 141.5 45.7544C142.532 45.7544 143.553 45.9576 144.507 46.3524C145.46 46.7473 146.326 47.326 147.056 48.0556C147.785 48.7851 148.364 49.6512 148.759 50.6045C149.154 51.5577 149.357 52.5793 149.357 53.6111C149.357 54.6429 149.154 55.6645 148.759 56.6178C148.364 57.571 147.785 58.4371 147.056 59.1667L146.944 59.0556Z" fill="white"/>
</g>
<defs>
<clipPath id="clip0_1621_14562">
<rect width="178" height="178" fill="white"/>
</clipPath>
</defs>
</svg>
