<svg width="100" height="100" viewBox="0 0 100 100" fill="none" xmlns="http://www.w3.org/2000/svg">
<g clip-path="url(#clip0_1424_12752)">
<path d="M44.0274 51.9171C42.9449 52.9936 42.1789 54.3469 41.8131 55.8291C41.4473 57.3113 41.4956 58.8656 41.953 60.3221C42.4103 61.7787 43.2589 63.0817 44.4063 64.0888C45.5537 65.096 46.9557 65.7685 48.4593 66.0331C49.9629 66.2978 51.5103 66.1442 52.9326 65.5893C54.3548 65.0344 55.5974 64.0994 56.5245 62.8865C57.4516 61.6735 58.0277 60.2292 58.1898 58.7111C58.352 57.1931 58.094 55.6596 57.4441 54.2782L73.8885 38.1393L69.9719 34.2227L53.5552 50.3615C52.002 49.5999 50.2504 49.3404 48.5431 49.6191C46.8358 49.8979 45.2576 50.701 44.0274 51.9171Z" fill="url(#paint0_linear_1424_12752)"/>
<path d="M90.4996 36.1116C88.6597 36.7879 86.7331 37.1994 84.7774 37.3338C87.9467 42.7819 89.7836 48.902 90.1385 55.1949H80.3329V60.7505H90.1385C89.492 68.7081 86.4838 76.2913 81.4996 82.5282H18.4996C13.5154 76.2913 10.5072 68.7081 9.86073 60.7505H19.4441V55.1949H9.86073C10.35 46.4133 13.718 38.0374 19.4441 31.3616L26.2496 38.1671L30.1663 34.2504L23.4163 27.4171C30.0365 21.5658 38.4066 18.0693 47.2218 17.4727V27.1949H52.7774V17.5004C56.1612 17.7247 59.5028 18.3781 62.7218 19.4449C62.586 18.5249 62.5118 17.597 62.4996 16.6671C62.5093 15.6531 62.5929 14.6412 62.7496 13.6393C53.299 10.8903 43.2142 11.2585 33.9891 14.6894C24.7641 18.1202 16.8895 24.4312 11.5317 32.6875C6.174 40.9439 3.61814 50.7063 4.24275 60.5289C4.86737 70.3514 8.63923 79.7115 14.9996 87.2227L15.8329 88.1949H84.1663L84.9996 87.2227C90.9233 80.2541 94.6195 71.6682 95.61 62.5759C96.6004 53.4836 94.8395 44.3032 90.5552 36.2227L90.4996 36.1116Z" fill="url(#paint1_linear_1424_12752)"/>
<path d="M83.3342 30.5551C91.0048 30.5551 97.2231 24.3369 97.2231 16.6662C97.2231 8.99561 91.0048 2.77734 83.3342 2.77734C75.6636 2.77734 69.4453 8.99561 69.4453 16.6662C69.4453 24.3369 75.6636 30.5551 83.3342 30.5551Z" fill="url(#paint2_linear_1424_12752)"/>
</g>
<defs>
<linearGradient id="paint0_linear_1424_12752" x1="57.7294" y1="34.2227" x2="57.7294" y2="66.1593" gradientUnits="userSpaceOnUse">
<stop stop-color="#FFE173"/>
<stop offset="0.9999" stop-color="#FFC3C6"/>
<stop offset="1" stop-color="#FFC3C6"/>
</linearGradient>
<linearGradient id="paint1_linear_1424_12752" x1="50.0145" y1="11.8164" x2="50.0145" y2="88.1949" gradientUnits="userSpaceOnUse">
<stop stop-color="#FFE173"/>
<stop offset="0.9999" stop-color="#FFC3C6"/>
<stop offset="1" stop-color="#FFC3C6"/>
</linearGradient>
<linearGradient id="paint2_linear_1424_12752" x1="83.3342" y1="2.77734" x2="83.3342" y2="30.5551" gradientUnits="userSpaceOnUse">
<stop stop-color="#FFE173"/>
<stop offset="0.9999" stop-color="#FFC3C6"/>
<stop offset="1" stop-color="#FFC3C6"/>
</linearGradient>
<clipPath id="clip0_1424_12752">
<rect width="100" height="100" fill="white"/>
</clipPath>
</defs>
</svg>
