<svg width="50" height="47" viewBox="0 0 50 47" fill="none" xmlns="http://www.w3.org/2000/svg">
<path d="M22.0137 24.4818C21.4724 24.9858 21.0895 25.6194 20.9065 26.3134C20.7236 27.0074 20.7478 27.7351 20.9765 28.417C21.2051 29.099 21.6295 29.7091 22.2032 30.1806C22.7769 30.6521 23.4779 30.967 24.2297 31.0909C24.9815 31.2148 25.7551 31.1429 26.4663 30.8831C27.1774 30.6233 27.7987 30.1856 28.2622 29.6177C28.7258 29.0498 29.0138 28.3735 29.0949 27.6628C29.176 26.952 29.047 26.2341 28.722 25.5873L36.9443 18.031L34.9859 16.1973L26.7776 23.7535C26.001 23.3969 25.1252 23.2754 24.2716 23.4059C23.4179 23.5364 22.6288 23.9124 22.0137 24.4818Z" fill="white"/>
<path d="M45.2508 17.082C44.3308 17.3987 43.3675 17.5914 42.3897 17.6543C43.9743 20.2051 44.8928 23.0705 45.0702 26.0168H40.1674V28.6179H45.0702C44.747 32.3437 43.2429 35.8942 40.7508 38.8143H9.25078C6.75867 35.8942 5.25459 32.3437 4.93134 28.6179H9.72301V26.0168H4.93134C5.17598 21.9053 6.85996 17.9837 9.72301 14.8581L13.1258 18.0444L15.0841 16.2106L11.7091 13.0113C15.0192 10.2717 19.2043 8.63464 23.6119 8.35529V12.9072H26.3897V8.3683C28.0816 8.47331 29.7524 8.77922 31.3619 9.27869C31.294 8.84797 31.2569 8.41348 31.2508 7.97813C31.2557 7.50338 31.2974 7.02959 31.3758 6.56053C26.6505 5.27344 21.6081 5.44583 16.9955 7.05215C12.383 8.65847 8.4457 11.6133 5.76684 15.4789C3.08797 19.3445 1.81005 23.9153 2.12235 28.5142C2.43466 33.1131 4.32059 37.4955 7.50078 41.0122L7.91745 41.4674H42.0841L42.5008 41.0122C45.4626 37.7495 47.3107 33.7296 47.806 29.4726C48.3012 25.2156 47.4207 20.9174 45.2786 17.134L45.2508 17.082Z" fill="white"/>
<path d="M41.6671 14.481C45.5024 14.481 48.6115 11.5694 48.6115 7.97782C48.6115 4.38619 45.5024 1.47461 41.6671 1.47461C37.8318 1.47461 34.7227 4.38619 34.7227 7.97782C34.7227 11.5694 37.8318 14.481 41.6671 14.481Z" fill="white"/>
</svg>
