<svg width="100" height="100" viewBox="0 0 100 100" fill="none" xmlns="http://www.w3.org/2000/svg">
<g clip-path="url(#clip0_1515_3632)">
<path d="M99.0848 46.9837L53.1138 1.04623C52.7828 0.714575 52.3897 0.451457 51.9569 0.271932C51.5241 0.0924069 51.0601 0 50.5915 0C50.123 0 49.659 0.0924069 49.2262 0.271932C48.7934 0.451457 48.4002 0.714575 48.0692 1.04623L2.09821 46.9837C0.758929 48.323 0 50.1422 0 52.0395C0 55.9793 3.20312 59.1824 7.14286 59.1824H11.9866V91.9614C11.9866 93.9369 13.5826 95.5328 15.558 95.5328H43.4487V70.5328H55.9487V95.5328H85.625C87.6005 95.5328 89.1964 93.9369 89.1964 91.9614V59.1824H94.0402C95.9375 59.1824 97.7567 58.4346 99.096 57.0842C101.875 54.294 101.875 49.7739 99.0848 46.9837Z" fill="white"/>
</g>
<defs>
<clipPath id="clip0_1515_3632">
<rect width="100" height="100" fill="white"/>
</clipPath>
</defs>
</svg>
