<svg width="95" height="83" viewBox="0 0 95 83" fill="none" xmlns="http://www.w3.org/2000/svg">
<path d="M47.23 0C21.128 0 4.90351e-10 21.1236 4.90351e-10 47.23V56.0856C-1.4128e-05 57.182 0.305286 58.2568 0.881691 59.1894C1.4581 60.1221 2.28283 60.8758 3.26348 61.3662L5.91703 62.6928C6.28805 73.779 15.3905 82.6525 26.5669 82.6525H30.9947C33.4401 82.6525 35.4225 80.6701 35.4225 78.2247V45.7541C35.4225 43.3086 33.4401 41.3262 30.9947 41.3262H26.5669C20.7845 41.3262 15.558 43.7023 11.8075 47.5302V47.23C11.8075 27.698 27.698 11.8075 47.23 11.8075C66.762 11.8075 82.6525 27.698 82.6525 47.23V47.5302C78.902 43.7023 73.6755 41.3262 67.8931 41.3262H63.4653C61.0199 41.3262 59.0375 43.3086 59.0375 45.7541V78.2247C59.0375 80.6701 61.0199 82.6525 63.4653 82.6525H67.8931C79.0695 82.6525 88.172 73.7788 88.543 62.6928L91.1963 61.3662C92.177 60.8759 93.0018 60.1221 93.5782 59.1895C94.1547 58.2568 94.46 57.182 94.46 56.0856V47.23C94.46 21.1282 73.3364 0 47.23 0Z" fill="white"/>
</svg>
