<svg width="26" height="30" viewBox="0 0 26 30" fill="none" xmlns="http://www.w3.org/2000/svg">
<path d="M8 11C8.26522 11 8.51957 11.1054 8.70711 11.2929C8.89464 11.4804 9 11.7348 9 12V24C9 24.2652 8.89464 24.5196 8.70711 24.7071C8.51957 24.8946 8.26522 25 8 25C7.73478 25 7.48043 24.8946 7.29289 24.7071C7.10536 24.5196 7 24.2652 7 24V12C7 11.7348 7.10536 11.4804 7.29289 11.2929C7.48043 11.1054 7.73478 11 8 11ZM13 11C13.2652 11 13.5196 11.1054 13.7071 11.2929C13.8946 11.4804 14 11.7348 14 12V24C14 24.2652 13.8946 24.5196 13.7071 24.7071C13.5196 24.8946 13.2652 25 13 25C12.7348 25 12.4804 24.8946 12.2929 24.7071C12.1054 24.5196 12 24.2652 12 24V12C12 11.7348 12.1054 11.4804 12.2929 11.2929C12.4804 11.1054 12.7348 11 13 11ZM19 12C19 11.7348 18.8946 11.4804 18.7071 11.2929C18.5196 11.1054 18.2652 11 18 11C17.7348 11 17.4804 11.1054 17.2929 11.2929C17.1054 11.4804 17 11.7348 17 12V24C17 24.2652 17.1054 24.5196 17.2929 24.7071C17.4804 24.8946 17.7348 25 18 25C18.2652 25 18.5196 24.8946 18.7071 24.7071C18.8946 24.5196 19 24.2652 19 24V12Z" fill="black"/>
<path fill-rule="evenodd" clip-rule="evenodd" d="M26 6C26 6.53043 25.7893 7.03914 25.4142 7.41421C25.0391 7.78929 24.5304 8 24 8H23V26C23 27.0609 22.5786 28.0783 21.8284 28.8284C21.0783 29.5786 20.0609 30 19 30H7C5.93913 30 4.92172 29.5786 4.17157 28.8284C3.42143 28.0783 3 27.0609 3 26V8H2C1.46957 8 0.960859 7.78929 0.585786 7.41421C0.210714 7.03914 0 6.53043 0 6V4C0 3.46957 0.210714 2.96086 0.585786 2.58579C0.960859 2.21071 1.46957 2 2 2H9C9 1.46957 9.21071 0.960859 9.58579 0.585786C9.96086 0.210714 10.4696 0 11 0L15 0C15.5304 0 16.0391 0.210714 16.4142 0.585786C16.7893 0.960859 17 1.46957 17 2H24C24.5304 2 25.0391 2.21071 25.4142 2.58579C25.7893 2.96086 26 3.46957 26 4V6ZM5.236 8L5 8.118V26C5 26.5304 5.21071 27.0391 5.58579 27.4142C5.96086 27.7893 6.46957 28 7 28H19C19.5304 28 20.0391 27.7893 20.4142 27.4142C20.7893 27.0391 21 26.5304 21 26V8.118L20.764 8H5.236ZM2 6V4H24V6H2Z" fill="black"/>
</svg>
