<svg width="51" height="51" viewBox="0 0 51 51" fill="none" xmlns="http://www.w3.org/2000/svg">
<path d="M14.625 35.6062L23.8187 35.5749L43.8854 15.6999C44.6729 14.9124 45.1063 13.8666 45.1063 12.7541C45.1063 11.6416 44.6729 10.5958 43.8854 9.80827L40.5812 6.5041C39.0062 4.9291 36.2583 4.93743 34.6958 6.49785L14.625 26.377V35.6062ZM37.6354 9.44994L40.9458 12.7479L37.6187 16.0437L34.3146 12.7416L37.6354 9.44994ZM18.7917 28.1145L31.3542 15.6708L34.6583 18.9749L22.0979 31.4145L18.7917 31.4249V28.1145Z" fill="black"/>
<path d="M10.4596 43.9121H39.6263C41.9242 43.9121 43.793 42.0434 43.793 39.7454V21.6871L39.6263 25.8538V39.7454H17.0388C16.9846 39.7454 16.9284 39.7663 16.8742 39.7663C16.8055 39.7663 16.7367 39.7475 16.6659 39.7454H10.4596V10.5788H24.7242L28.8909 6.41211H10.4596C8.16172 6.41211 6.29297 8.28086 6.29297 10.5788V39.7454C6.29297 42.0434 8.16172 43.9121 10.4596 43.9121Z" fill="black"/>
</svg>
