<svg width="31" height="31" viewBox="0 0 31 31" fill="none" xmlns="http://www.w3.org/2000/svg">
<path d="M8.7998 21.4284L14.3161 21.4096L26.3561 9.48461C26.8286 9.01211 27.0886 8.38461 27.0886 7.71711C27.0886 7.04961 26.8286 6.42211 26.3561 5.94961L24.3736 3.96711C23.4286 3.02211 21.7798 3.02711 20.8423 3.96336L8.7998 15.8909V21.4284ZM22.6061 5.73461L24.5923 7.71336L22.5961 9.69086L20.6136 7.70961L22.6061 5.73461ZM11.2998 16.9334L18.8373 9.46711L20.8198 11.4496L13.2836 18.9134L11.2998 18.9196V16.9334Z" fill="white"/>
<path d="M6.2998 26.4121H23.7998C25.1786 26.4121 26.2998 25.2909 26.2998 23.9121V13.0771L23.7998 15.5771V23.9121H10.2473C10.2148 23.9121 10.1811 23.9246 10.1486 23.9246C10.1073 23.9246 10.0661 23.9134 10.0236 23.9121H6.2998V6.41211H14.8586L17.3586 3.91211H6.2998C4.92105 3.91211 3.7998 5.03336 3.7998 6.41211V23.9121C3.7998 25.2909 4.92105 26.4121 6.2998 26.4121Z" fill="white"/>
</svg>
