<svg width="50" height="50" viewBox="0 0 50 50" fill="none" xmlns="http://www.w3.org/2000/svg">
<path d="M39.5833 43.75H20.8333C19.7283 43.75 18.6685 43.311 17.8871 42.5296C17.1057 41.7482 16.6667 40.6884 16.6667 39.5833V31.25H20.8333V39.5833H39.5833V10.4167H20.8333V18.75H16.6667V10.4167C16.6667 9.3116 17.1057 8.25179 17.8871 7.47039C18.6685 6.68899 19.7283 6.25 20.8333 6.25H39.5833C40.6884 6.25 41.7482 6.68899 42.5296 7.47039C43.311 8.25179 43.75 9.3116 43.75 10.4167V39.5833C43.75 40.6884 43.311 41.7482 42.5296 42.5296C41.7482 43.311 40.6884 43.75 39.5833 43.75ZM25 33.3333V27.0833H6.25V22.9167H25V16.6667L35.4167 25L25 33.3333Z" fill="black"/>
</svg>
