<svg width="26" height="40" viewBox="0 0 26 40" fill="none" xmlns="http://www.w3.org/2000/svg">
<path d="M7.99902 21C8.26424 21 8.51859 21.1054 8.70613 21.2929C8.89367 21.4804 8.99902 21.7348 8.99902 22V34C8.99902 34.2652 8.89367 34.5196 8.70613 34.7071C8.51859 34.8946 8.26424 35 7.99902 35C7.73381 35 7.47945 34.8946 7.29192 34.7071C7.10438 34.5196 6.99902 34.2652 6.99902 34V22C6.99902 21.7348 7.10438 21.4804 7.29192 21.2929C7.47945 21.1054 7.73381 21 7.99902 21V21ZM12.999 21C13.2642 21 13.5186 21.1054 13.7061 21.2929C13.8937 21.4804 13.999 21.7348 13.999 22V34C13.999 34.2652 13.8937 34.5196 13.7061 34.7071C13.5186 34.8946 13.2642 35 12.999 35C12.7338 35 12.4795 34.8946 12.2919 34.7071C12.1044 34.5196 11.999 34.2652 11.999 34V22C11.999 21.7348 12.1044 21.4804 12.2919 21.2929C12.4795 21.1054 12.7338 21 12.999 21V21ZM18.999 22C18.999 21.7348 18.8937 21.4804 18.7061 21.2929C18.5186 21.1054 18.2642 21 17.999 21C17.7338 21 17.4795 21.1054 17.2919 21.2929C17.1044 21.4804 16.999 21.7348 16.999 22V34C16.999 34.2652 17.1044 34.5196 17.2919 34.7071C17.4795 34.8946 17.7338 35 17.999 35C18.2642 35 18.5186 34.8946 18.7061 34.7071C18.8937 34.5196 18.999 34.2652 18.999 34V22Z" fill="#ED1C24"/>
<path fill-rule="evenodd" clip-rule="evenodd" d="M26 6.5C26 7.03043 25.7893 8.03914 25.4142 8.41421C25.0391 8.78929 24.5304 9 24 9H22.9995V36C22.9995 37.0609 22.5781 38.0783 21.8279 38.8284C21.0778 39.5786 20.0604 40 18.9995 40H6.99951C5.93864 40 4.92123 39.5786 4.17108 38.8284C3.42093 38.0783 2.99951 37.0609 2.99951 36V9H1.99951C1.46907 9 0.960366 8.78929 0.585293 8.41421C0.210221 8.03914 0 7.03043 0 6.5V4.5C0 3.96957 0.210714 3.46086 0.585786 3.08579C0.960859 2.71071 1.46957 2.5 2 2.5H9C9 1.96957 9.21071 1.46086 9.58579 1.08579C9.96086 0.710714 10.4696 0.5 11 0.5H15C15.5304 0.5 16.0391 0.710714 16.4142 1.08579C16.7893 1.46086 17 1.96957 17 2.5H24C24.5304 2.5 25.0391 2.71071 25.4142 3.08579C25.7893 3.46086 26 3.96957 26 4.5V6.5ZM5 9L4.99951 36C4.99951 36.5304 5.21022 37.0391 5.58529 37.4142C5.96037 37.7893 6.46907 38 6.99951 38H18.9995C19.5299 38 20.0386 37.7893 20.4137 37.4142C20.7888 37.0391 20.9995 36.5304 20.9995 36V9H20.5H5ZM2 6.5V4.5H24V6.5H2Z" fill="#ED1C24"/>
<line x1="21" y1="16.75" x2="5" y2="16.75" stroke="#ED1C24" stroke-width="2.5"/>
<line x1="22" y1="9" x2="22" y2="15.5" stroke="white" stroke-width="2"/>
<line x1="4" y1="9" x2="4" y2="15.5" stroke="white" stroke-width="2"/>
</svg>
