<svg width="65" height="65" viewBox="0 0 65 65" fill="none" xmlns="http://www.w3.org/2000/svg">
<path d="M33.583 31.4436L42.7768 31.4123L62.8434 11.5373C63.6309 10.7498 64.0643 9.704 64.0643 8.5915C64.0643 7.479 63.6309 6.43317 62.8434 5.64567L59.5393 2.3415C57.9643 0.766504 55.2163 0.774837 53.6538 2.33525L33.583 22.2144V31.4436ZM56.5934 5.28734L59.9038 8.58525L56.5768 11.8811L53.2726 8.579L56.5934 5.28734ZM37.7497 23.9519L50.3122 11.5082L53.6163 14.8123L41.0559 27.2519L37.7497 27.2623V23.9519Z" fill="#ED1C24"/>
<path d="M17.4167 51.75H46.5833C48.8812 51.75 50.75 49.8812 50.75 47.5833V29.525L46.5833 33.6917V47.5833H23.9958C23.9417 47.5833 23.8854 47.6042 23.8313 47.6042C23.7625 47.6042 23.6937 47.5854 23.6229 47.5833H17.4167V18.4167H31.6812L35.8479 14.25H17.4167C15.1187 14.25 13.25 16.1187 13.25 18.4167V47.5833C13.25 49.8812 15.1187 51.75 17.4167 51.75Z" fill="#ED1C24"/>
</svg>
