<svg width="27" height="31" viewBox="0 0 27 31" fill="none" xmlns="http://www.w3.org/2000/svg">
<path d="M8.94824 11.1621C9.21346 11.1621 9.46781 11.2675 9.65535 11.455C9.84289 11.6425 9.94824 11.8969 9.94824 12.1621V24.1621C9.94824 24.4273 9.84289 24.6817 9.65535 24.8692C9.46781 25.0568 9.21346 25.1621 8.94824 25.1621C8.68303 25.1621 8.42867 25.0568 8.24114 24.8692C8.0536 24.6817 7.94824 24.4273 7.94824 24.1621V12.1621C7.94824 11.8969 8.0536 11.6425 8.24114 11.455C8.42867 11.2675 8.68303 11.1621 8.94824 11.1621ZM13.9482 11.1621C14.2135 11.1621 14.4678 11.2675 14.6553 11.455C14.8429 11.6425 14.9482 11.8969 14.9482 12.1621V24.1621C14.9482 24.4273 14.8429 24.6817 14.6553 24.8692C14.4678 25.0568 14.2135 25.1621 13.9482 25.1621C13.683 25.1621 13.4287 25.0568 13.2411 24.8692C13.0536 24.6817 12.9482 24.4273 12.9482 24.1621V12.1621C12.9482 11.8969 13.0536 11.6425 13.2411 11.455C13.4287 11.2675 13.683 11.1621 13.9482 11.1621ZM19.9482 12.1621C19.9482 11.8969 19.8429 11.6425 19.6553 11.455C19.4678 11.2675 19.2135 11.1621 18.9482 11.1621C18.683 11.1621 18.4287 11.2675 18.2411 11.455C18.0536 11.6425 17.9482 11.8969 17.9482 12.1621V24.1621C17.9482 24.4273 18.0536 24.6817 18.2411 24.8692C18.4287 25.0568 18.683 25.1621 18.9482 25.1621C19.2135 25.1621 19.4678 25.0568 19.6553 24.8692C19.8429 24.6817 19.9482 24.4273 19.9482 24.1621V12.1621Z" fill="white"/>
<path fill-rule="evenodd" clip-rule="evenodd" d="M26.9482 6.16211C26.9482 6.69254 26.7375 7.20125 26.3625 7.57632C25.9874 7.9514 25.4787 8.16211 24.9482 8.16211H23.9482V26.1621C23.9482 27.223 23.5268 28.2404 22.7767 28.9905C22.0265 29.7407 21.0091 30.1621 19.9482 30.1621H7.94824C6.88738 30.1621 5.86996 29.7407 5.11981 28.9905C4.36967 28.2404 3.94824 27.223 3.94824 26.1621V8.16211H2.94824C2.41781 8.16211 1.9091 7.9514 1.53403 7.57632C1.15896 7.20125 0.948242 6.69254 0.948242 6.16211V4.16211C0.948242 3.63168 1.15896 3.12297 1.53403 2.7479C1.9091 2.37282 2.41781 2.16211 2.94824 2.16211H9.94824C9.94824 1.63168 10.159 1.12297 10.534 0.747896C10.9091 0.372823 11.4178 0.162109 11.9482 0.162109L15.9482 0.162109C16.4787 0.162109 16.9874 0.372823 17.3625 0.747896C17.7375 1.12297 17.9482 1.63168 17.9482 2.16211H24.9482C25.4787 2.16211 25.9874 2.37282 26.3625 2.7479C26.7375 3.12297 26.9482 3.63168 26.9482 4.16211V6.16211ZM6.18424 8.16211L5.94824 8.28011V26.1621C5.94824 26.6925 6.15896 27.2013 6.53403 27.5763C6.9091 27.9514 7.41781 28.1621 7.94824 28.1621H19.9482C20.4787 28.1621 20.9874 27.9514 21.3625 27.5763C21.7375 27.2013 21.9482 26.6925 21.9482 26.1621V8.28011L21.7122 8.16211H6.18424ZM2.94824 6.16211V4.16211H24.9482V6.16211H2.94824Z" fill="white"/>
</svg>
