<svg width="28" height="37" viewBox="0 0 28 37" fill="none" xmlns="http://www.w3.org/2000/svg">
<path d="M18.2718 14.1952C18.2718 14.9696 17.6463 15.5975 16.8764 15.5975C16.1065 15.5975 15.481 14.9696 15.481 14.1952C15.481 13.4215 16.1065 12.793 16.8764 12.793C17.6463 12.793 18.2718 13.4215 18.2718 14.1952Z" fill="white"/>
<path d="M12.6895 14.1952C12.6895 14.9696 12.064 15.5975 11.2941 15.5975C10.5242 15.5975 9.89868 14.9696 9.89868 14.1952C9.89868 13.4215 10.5242 12.793 11.2941 12.793C12.064 12.793 12.6895 13.4215 12.6895 14.1952Z" fill="white"/>
<path d="M14.085 21.2081C13.2814 21.2081 12.4777 21.0075 11.6799 20.6066C11.3351 20.4333 11.1954 20.0123 11.3678 19.6658C11.5399 19.3197 11.9582 19.179 12.304 19.3522C13.5025 19.9548 14.6676 19.9548 15.8661 19.3522C16.2112 19.179 16.6299 19.3197 16.8023 19.6658C16.9747 20.0123 16.835 20.4333 16.4902 20.6066C15.6923 21.0075 14.8887 21.2081 14.085 21.2081Z" fill="white"/>
<path d="M21.1937 9.15977C20.796 8.43761 20.3285 7.77854 19.7983 7.20361V8.71105C19.6448 8.71105 19.4634 8.71806 19.268 8.73208C19.5889 9.15276 19.875 9.61544 20.1262 10.1063C20.8657 11.5576 21.2984 13.2894 21.2984 15.1474C21.2984 20.2447 18.061 24.3884 14.0841 24.3884C10.1072 24.3884 6.86978 20.2447 6.86978 15.1474C6.86978 13.2824 7.30236 11.5506 8.04891 10.0993C8.30009 9.6085 8.58615 9.15276 8.90011 8.73208C8.70476 8.71806 8.52335 8.71105 8.36986 8.71105V7.20361C7.84657 7.77854 7.37213 8.43761 6.97444 9.15977C6.02555 10.8635 5.47437 12.9249 5.47437 15.1474C5.47437 21.0159 9.33967 25.7906 14.0841 25.7906C18.8355 25.7906 22.6938 21.0159 22.6938 15.1474C22.6937 12.9249 22.1426 10.8635 21.1937 9.15977Z" fill="white"/>
<path d="M3.87744 3.4707L7.67298 3.8423L14.0012 4.4593L20.4969 3.82127L24.118 3.4707" fill="white"/>
<path d="M3.87744 3.4707L7.67298 3.8423L14.0012 4.4593L20.4969 3.82127L24.118 3.4707" stroke="white" stroke-width="2.26902" stroke-miterlimit="10" stroke-linecap="round" stroke-linejoin="round"/>
<path d="M14.6424 11.6841C14.6285 11.6911 14.6215 11.7051 14.6145 11.7121C14.5238 11.8243 14.4122 11.8944 14.2866 11.9295C14.2587 11.9435 14.2308 11.9505 14.2029 11.9505C14.161 11.9645 14.1261 11.9645 14.0843 11.9645C14.0424 11.9645 14.0005 11.9645 13.9657 11.9505C13.9377 11.9505 13.9098 11.9435 13.8819 11.9295C13.7912 11.9085 13.7075 11.8594 13.6308 11.7963C13.5889 11.7612 13.554 11.7262 13.5261 11.6841C12.3749 10.38 9.4445 10.1065 8.04908 10.0995C7.91652 10.0995 7.79791 10.1065 7.70023 10.1065C7.51185 10.1136 7.32346 10.0505 7.1909 9.91724C7.05136 9.78403 6.97461 9.60173 6.97461 9.41243V3.47384C6.97461 3.0812 7.28858 2.77271 7.67232 2.77271C8.05606 2.77271 8.37003 3.0812 8.37003 3.47384V8.7113C8.52352 8.7113 8.70493 8.71831 8.90029 8.73233C10.3236 8.81646 12.64 9.1319 14.0843 10.3029C14.2796 10.4501 14.454 10.6184 14.6145 10.8077C14.8308 11.06 14.8378 11.4247 14.6424 11.6841Z" fill="white"/>
<path d="M21.1943 3.47384V9.41243C21.1943 9.60173 21.1176 9.78403 20.985 9.91724C20.8455 10.0434 20.678 10.1136 20.4687 10.1136C20.371 10.1065 20.2524 10.1065 20.1268 10.1065C18.7244 10.1065 15.787 10.373 14.6428 11.6841C14.6288 11.6911 14.6218 11.7051 14.6149 11.7121C14.5242 11.8243 14.4125 11.8944 14.2869 11.9295C14.259 11.9435 14.2311 11.9505 14.2032 11.9505C14.1613 11.9645 14.1265 11.9645 14.0846 11.9645C14.0427 11.9645 14.0009 11.9645 13.966 11.9505C13.9381 11.9505 13.9102 11.9435 13.8823 11.9295C13.7916 11.9085 13.7078 11.8594 13.6311 11.7963C13.5892 11.7612 13.5543 11.7262 13.5264 11.6841C13.3311 11.4247 13.3381 11.0601 13.5543 10.8077C13.7148 10.6184 13.8892 10.4501 14.0846 10.3029C15.5289 9.13197 17.8452 8.81646 19.2686 8.73233C19.4639 8.71831 19.6453 8.7113 19.7988 8.7113V3.47384C19.7988 3.0812 20.1128 2.77271 20.4965 2.77271C20.8803 2.77271 21.1943 3.0812 21.1943 3.47384Z" fill="white"/>
<path d="M24.118 3.47064L13.5616 1.69678L3.87744 3.47064" fill="white"/>
<path d="M24.118 3.47064L13.5616 1.69678L3.87744 3.47064" stroke="white" stroke-width="2.26902" stroke-miterlimit="10" stroke-linecap="round" stroke-linejoin="round"/>
<path d="M3.87837 10.0227C3.49275 10.0227 3.18066 9.70878 3.18066 9.32161V3.62765C3.18066 3.24041 3.49275 2.92651 3.87837 2.92651C4.264 2.92651 4.57608 3.24041 4.57608 3.62765V9.32161C4.57608 9.70878 4.264 10.0227 3.87837 10.0227Z" fill="white"/>
<path d="M2.46397 11.8315C2.31333 11.8315 2.16144 11.7826 2.03334 11.6819C1.73081 11.4426 1.67765 11.0017 1.91612 10.6973L3.32996 8.88865C3.56774 8.58464 4.00513 8.53093 4.30975 8.77023C4.61228 9.00952 4.66538 9.45047 4.4269 9.75483L3.01313 11.5635C2.87547 11.7394 2.67105 11.8315 2.46397 11.8315Z" fill="white"/>
<path d="M3.87837 12.8979C3.49275 12.8979 3.18066 12.584 3.18066 12.1968V9.32174C3.18066 8.9345 3.49275 8.62061 3.87837 8.62061C4.264 8.62061 4.57608 8.9345 4.57608 9.32174V12.1968C4.57608 12.584 4.264 12.8979 3.87837 12.8979Z" fill="white"/>
<path d="M21.0285 12.9899C19.9165 12.9899 17.758 12.6736 15.6192 10.5873C15.3426 10.3175 15.3358 9.87348 15.6042 9.59583C15.8734 9.31783 16.3142 9.31166 16.5908 9.58076C19.0478 11.9776 21.4299 11.5732 21.5293 11.5541C21.9061 11.4863 22.2713 11.7345 22.3422 12.1125C22.4137 12.4911 22.1705 12.8564 21.7943 12.9306C21.7576 12.9382 21.4782 12.9899 21.0285 12.9899Z" fill="white"/>
<path d="M7.14121 12.9899C6.69084 12.9899 6.41211 12.9382 6.37534 12.9306C5.99718 12.856 5.75124 12.4873 5.82547 12.1073C5.89978 11.7283 6.26426 11.4825 6.64109 11.5541C6.7535 11.576 9.1294 11.9711 11.5788 9.58076C11.8555 9.31166 12.2963 9.31783 12.5655 9.59583C12.8339 9.87348 12.8271 10.3175 12.5505 10.5873C10.4117 12.6736 8.25315 12.9899 7.14121 12.9899Z" fill="white"/>
<path d="M27.2142 36.5273C27.1788 36.5273 27.1433 36.5252 27.1079 36.5198C26.727 36.4609 26.4654 36.1034 26.5234 35.7214C26.5294 35.681 27.1004 31.696 25.0379 29.2866C24.0085 28.0842 22.4638 27.455 20.4429 27.4153C18.1338 28.9477 16.2369 29.9014 14.0756 29.9316C14.0607 29.9323 14.0457 29.9323 14.0307 29.9323C14.0252 29.9323 14.0211 29.9323 14.0157 29.9323H13.9844C13.9741 29.9323 13.9652 29.9323 13.9551 29.9323C13.9448 29.9323 13.9346 29.9323 13.9243 29.9316C11.7617 29.9014 9.8662 28.9477 7.55713 27.4153C5.53621 27.455 3.99156 28.0842 2.96202 29.2866C0.899593 31.696 1.47053 35.681 1.47667 35.7214C1.53458 36.1034 1.27294 36.4609 0.892057 36.5198C0.518713 36.5787 0.156184 36.3164 0.0976463 35.9337C0.0689705 35.7447 -0.581015 31.2831 1.89843 28.3787C3.24006 26.8073 5.21325 26.011 7.76421 26.011C7.90187 26.011 8.0368 26.0521 8.15123 26.1288C10.3513 27.6029 12.1004 28.5197 14 28.53C15.8989 28.5204 17.648 27.6029 19.8487 26.1288C19.9632 26.0521 20.0982 26.011 20.2358 26.011C22.7868 26.011 24.76 26.8073 26.1016 28.3787C28.581 31.2831 27.931 35.7447 27.9024 35.9337C27.8492 36.2801 27.5522 36.5273 27.2142 36.5273Z" fill="white"/>
</svg>
