<svg width="24" height="24" viewBox="0 0 24 24" fill="none" xmlns="http://www.w3.org/2000/svg">
<path d="M22.014 23.966C9.56003 23.9836 0.10748 14.3929 0.120619 2.01359C0.120619 1.20412 0.774633 0.54541 1.58047 0.54541H5.43448C6.15711 0.54541 6.77171 1.07823 6.87828 1.79549C7.13244 3.51552 7.63144 5.19008 8.36003 6.76798L8.51039 7.09294C8.6114 7.31162 8.63312 7.55878 8.57183 7.7918C8.51053 8.02482 8.37005 8.22909 8.17463 8.36937C6.98047 9.22422 6.52499 10.9442 7.45492 12.285C8.6257 13.9732 10.0869 15.4389 11.7702 16.6134C13.1089 17.5444 14.8243 17.0877 15.6753 15.8918C15.8151 15.6952 16.019 15.5539 16.2517 15.4921C16.4844 15.4304 16.7314 15.4521 16.9498 15.5536L17.2724 15.7029C18.8461 16.4348 20.5162 16.9355 22.2315 17.1902C22.9469 17.297 23.4783 17.9133 23.4783 18.6393V22.5023C23.4783 22.6946 23.4405 22.8851 23.367 23.0628C23.2935 23.2404 23.1859 23.4019 23.0502 23.5378C22.9144 23.6738 22.7533 23.7816 22.5761 23.855C22.3988 23.9285 22.2088 23.9662 22.0169 23.966H22.014Z" fill="white"/>
</svg>
