<svg width="31" height="25" viewBox="0 0 31 25" fill="none" xmlns="http://www.w3.org/2000/svg">
<path d="M5.77376 0C4.4463 0 3.1732 0.526784 2.23455 1.46447C1.29589 2.40215 0.768555 3.67392 0.768555 5V5.5025L15.7842 13.58L30.7998 5.505V5C30.7998 3.67392 30.2725 2.40215 29.3338 1.46447C28.3952 0.526784 27.1221 0 25.7946 0H5.77376ZM30.7998 8.3425L16.3773 16.1C16.195 16.198 15.9912 16.2493 15.7842 16.2493C15.5772 16.2493 15.3734 16.198 15.1911 16.1L0.768555 8.3425V20C0.768555 21.3261 1.29589 22.5979 2.23455 23.5355C3.1732 24.4732 4.4463 25 5.77376 25H25.7946C27.1221 25 28.3952 24.4732 29.3338 23.5355C30.2725 22.5979 30.7998 21.3261 30.7998 20V8.3425Z" fill="white"/>
</svg>
