<svg width="30" height="30" viewBox="0 0 30 30" fill="none" xmlns="http://www.w3.org/2000/svg">
<path d="M21.3635 29.0001V25.889C21.3635 24.2387 20.8272 22.6561 19.8724 21.4892C18.9177 20.3223 17.6228 19.6667 16.2727 19.6667H6.09088C4.7407 19.6667 3.44581 20.3223 2.49109 21.4892C1.53636 22.6561 1 24.2387 1 25.889V29.0001" stroke="white" stroke-width="2" stroke-linecap="round" stroke-linejoin="round"/>
<path d="M11.1817 13.4444C13.9933 13.4444 16.2726 10.6587 16.2726 7.22222C16.2726 3.78578 13.9933 1 11.1817 1C8.37009 1 6.09082 3.78578 6.09082 7.22222C6.09082 10.6587 8.37009 13.4444 11.1817 13.4444Z" stroke="white" stroke-width="2" stroke-linecap="round" stroke-linejoin="round"/>
<path d="M28.9998 29V25.8889C28.999 24.5102 28.6235 23.171 27.9325 22.0814C27.2414 20.9918 26.2738 20.2136 25.1816 19.8689" stroke="white" stroke-width="2" stroke-linecap="round" stroke-linejoin="round"/>
<path d="M20.0908 1.20215C21.1859 1.54484 22.1565 2.32324 22.8496 3.41463C23.5427 4.50602 23.919 5.84833 23.919 7.22992C23.919 8.61152 23.5427 9.95382 22.8496 11.0452C22.1565 12.1366 21.1859 12.915 20.0908 13.2577" stroke="white" stroke-width="2" stroke-linecap="round" stroke-linejoin="round"/>
</svg>
