<svg width="38" height="38" viewBox="0 0 38 38" fill="none" xmlns="http://www.w3.org/2000/svg">
<path fill-rule="evenodd" clip-rule="evenodd" d="M18.9998 0.666504C8.87484 0.666504 0.666504 8.87484 0.666504 18.9998C0.666504 29.1248 8.87484 37.3332 18.9998 37.3332C29.1248 37.3332 37.3332 29.1248 37.3332 18.9998C37.3332 8.87484 29.1248 0.666504 18.9998 0.666504ZM13.6665 22.3332C13.43 22.3359 13.1969 22.2763 12.9906 22.1605C12.7844 22.0447 12.6122 21.8766 12.4915 21.6732C12.3778 21.4756 12.3236 21.2493 12.3355 21.0217C12.3473 20.794 12.4246 20.5746 12.5582 20.3898L17.8915 12.8898C18.0188 12.7157 18.1857 12.5744 18.3784 12.4776C18.5712 12.3808 18.7842 12.3313 18.9998 12.3332C19.4465 12.3332 19.8615 12.5415 20.1098 12.8898L25.4432 20.3898C25.5767 20.5746 25.6541 20.794 25.6659 21.0217C25.6777 21.2493 25.6235 21.4756 25.5098 21.6732C25.3889 21.8768 25.2165 22.0451 25.01 22.1609C24.8034 22.2768 24.57 22.3362 24.3332 22.3332H13.6665Z" fill="white"/>
</svg>
